<?xml version="1.0" encoding="UTF-8"?>
<svg xmlns="http://www.w3.org/2000/svg" xmlns:xlink="http://www.w3.org/1999/xlink" width="20px" height="20px" viewBox="0 0 20 20" version="1.1">
<g id="surface1">
<path style=" stroke:none;fill-rule:nonzero;fill:rgb(24.313725%,26.27451%,27.843137%);fill-opacity:1;" d="M 10.015625 0 C 5.644531 0 1.953125 2.800781 0.570312 6.675781 L 19.433594 6.675781 C 18.078125 2.800781 14.382812 0 10.015625 0 Z M 10.015625 0 "/>
<path style=" stroke:none;fill-rule:nonzero;fill:rgb(100%,90.196078%,18.039216%);fill-opacity:1;" d="M 10.015625 20 C 14.386719 20 18.078125 17.230469 19.460938 13.324219 L 0.570312 13.324219 C 1.953125 17.230469 5.644531 20 10.015625 20 Z M 10.015625 20 "/>
<path style=" stroke:none;fill-rule:nonzero;fill:rgb(92.941176%,29.803922%,36.078431%);fill-opacity:1;" d="M 0.570312 6.675781 C 0.199219 7.722656 0.015625 8.832031 0.015625 10 C 0.015625 11.167969 0.230469 12.308594 0.570312 13.324219 L 19.433594 13.324219 C 19.804688 12.277344 19.988281 11.171875 19.988281 10 C 19.988281 8.828125 19.773438 7.691406 19.433594 6.675781 L 0.570312 6.675781 "/>
</g>
</svg>
