<?xml version="1.0" encoding="UTF-8"?>
<svg xmlns="http://www.w3.org/2000/svg" xmlns:xlink="http://www.w3.org/1999/xlink" width="19px" height="20px" viewBox="0 0 19 19" version="1.1">
<g id="surface1">
<path style=" stroke:none;fill-rule:evenodd;fill:rgb(92.941176%,10.980392%,14.117647%);fill-opacity:1;" d="M 9.492188 0.00390625 C 14.714844 0.00390625 18.949219 4.253906 18.949219 9.492188 C 18.949219 14.734375 14.714844 18.980469 9.492188 18.980469 C 4.265625 18.980469 0.03125 14.734375 0.03125 9.492188 C 0.03125 4.253906 4.265625 0.00390625 9.492188 0.00390625 "/>
<path style=" stroke:none;fill-rule:evenodd;fill:rgb(100%,100%,100%);fill-opacity:1;" d="M 8.265625 3.8125 C 9.734375 3.8125 11.070312 4.402344 12.0625 5.363281 C 11.398438 4.941406 10.621094 4.699219 9.789062 4.699219 C 7.320312 4.699219 5.316406 6.84375 5.316406 9.492188 C 5.316406 12.140625 7.320312 14.289062 9.789062 14.289062 C 10.621094 14.289062 11.398438 14.042969 12.0625 13.621094 C 11.070312 14.582031 9.734375 15.171875 8.265625 15.171875 C 5.207031 15.171875 2.726562 12.628906 2.726562 9.492188 C 2.726562 6.355469 5.207031 3.8125 8.265625 3.8125 "/>
<path style=" stroke:none;fill-rule:evenodd;fill:rgb(100%,100%,100%);fill-opacity:1;" d="M 14.25 7.738281 L 14.722656 9.082031 L 16.253906 9.078125 L 15.011719 9.90625 L 15.488281 11.246094 L 14.25 10.414062 L 13.011719 11.246094 L 13.488281 9.90625 L 12.25 9.078125 L 13.78125 9.082031 L 14.25 7.738281 "/>
</g>
</svg>
